<?xml version="1.0" encoding="UTF-8" standalone="no"?>
<!-- Created with Inkscape (http://www.inkscape.org/) -->

<svg
   width="210mm"
   height="297mm"
   viewBox="0 0 210 297"
   version="1.1"
   id="svg1"
   inkscape:version="1.3.2 (091e20e, 2023-11-25, custom)"
   sodipodi:docname="zīmējums_logo_istais_adamovica_plavejs.svg"
   xmlns:inkscape="http://www.inkscape.org/namespaces/inkscape"
   xmlns:sodipodi="http://sodipodi.sourceforge.net/DTD/sodipodi-0.dtd"
   xmlns="http://www.w3.org/2000/svg"
   xmlns:svg="http://www.w3.org/2000/svg">
  <sodipodi:namedview
     id="namedview1"
     pagecolor="#ffffff"
     bordercolor="#000000"
     borderopacity="0.25"
     inkscape:showpageshadow="2"
     inkscape:pageopacity="0.0"
     inkscape:pagecheckerboard="0"
     inkscape:deskcolor="#d1d1d1"
     inkscape:document-units="mm"
     inkscape:zoom="2.0560856"
     inkscape:cx="430.91591"
     inkscape:cy="593.60369"
     inkscape:window-width="1920"
     inkscape:window-height="1017"
     inkscape:window-x="-8"
     inkscape:window-y="-8"
     inkscape:window-maximized="1"
     inkscape:current-layer="layer1"
     showguides="false" />
  <defs
     id="defs1">
    <inkscape:perspective
       sodipodi:type="inkscape:persp3d"
       inkscape:vp_x="-40.036286 : 149.36783 : 1"
       inkscape:vp_y="0 : 1742.6606 : 0"
       inkscape:vp_z="315.89359 : 149.36783 : 1"
       inkscape:persp3d-origin="137.92865 : 63.106136 : 1"
       id="perspective1" />
  </defs>
  <g
     inkscape:label="Slānis 1"
     inkscape:groupmode="layer"
     id="layer1">
    <g
       sodipodi:type="inkscape:box3d"
       id="g1"
       style="fill:#843d11;fill-opacity:1;stroke:#194214;stroke-width:5;stroke-dasharray:none;stroke-dashoffset:0;stroke-opacity:0.952899;paint-order:markers fill stroke"
       inkscape:perspectiveID="#perspective1"
       inkscape:corner0="1.4447869 : 0.067611264 : 0 : 1"
       inkscape:corner7="-0.019758855 : 0.035278101 : 0.25 : 1">
      <path
         sodipodi:type="inkscape:box3dside"
         id="path6"
         style="fill:#843d11;fill-opacity:1;fill-rule:evenodd;stroke:#194214;stroke-width:5;stroke-linejoin:round;stroke-dasharray:none;stroke-dashoffset:0;stroke-opacity:0.952899;paint-order:markers fill stroke"
         inkscape:box3dsidetype="11"
         d="m 59.024389,135.92001 117.927201,-13.9428 v 45.80056 L 59.024389,156.82917 Z"
         points="176.95159,121.97721 176.95159,167.77777 59.024389,156.82917 59.024389,135.92001 " />
      <path
         sodipodi:type="inkscape:box3dside"
         id="path1"
         style="fill:#843d11;fill-opacity:1;fill-rule:evenodd;stroke:#194214;stroke-width:5;stroke-linejoin:round;stroke-dasharray:none;stroke-dashoffset:0;stroke-opacity:0.952899;paint-order:markers fill stroke"
         inkscape:box3dsidetype="6"
         d="m 32.757354,134.72234 v 23.0473 l 26.267035,-0.94047 v -20.90916 z"
         points="32.757354,157.76964 59.024389,156.82917 59.024389,135.92001 32.757354,134.72234 " />
      <path
         sodipodi:type="inkscape:box3dside"
         id="path5"
         style="fill:#843d11;fill-opacity:1;fill-rule:evenodd;stroke:#194214;stroke-width:5;stroke-linejoin:round;stroke-dasharray:none;stroke-dashoffset:0;stroke-opacity:0.952899;paint-order:markers fill stroke"
         inkscape:box3dsidetype="13"
         d="m 32.757354,157.76964 108.758566,15.14604 35.43567,-5.13791 -117.927201,-10.9486 z"
         points="141.51592,172.91568 176.95159,167.77777 59.024389,156.82917 32.757354,157.76964 " />
      <path
         sodipodi:type="inkscape:box3dside"
         id="path2"
         style="fill:#843d11;fill-opacity:1;fill-rule:evenodd;stroke:#194214;stroke-width:5;stroke-linejoin:round;stroke-dasharray:none;stroke-dashoffset:0;stroke-opacity:0.952899;paint-order:markers fill stroke"
         inkscape:box3dsidetype="5"
         d="m 32.757354,134.72234 108.758566,-19.28815 35.43567,6.54302 -117.927201,13.9428 z"
         points="141.51592,115.43419 176.95159,121.97721 59.024389,135.92001 32.757354,134.72234 " />
      <path
         sodipodi:type="inkscape:box3dside"
         id="path4"
         style="fill:#843d11;fill-opacity:1;fill-rule:evenodd;stroke:#194214;stroke-width:5;stroke-linejoin:round;stroke-dasharray:none;stroke-dashoffset:0;stroke-opacity:0.952899;paint-order:markers fill stroke"
         inkscape:box3dsidetype="14"
         d="m 141.51592,115.43419 v 57.48149 l 35.43567,-5.13791 v -45.80056 z"
         points="141.51592,172.91568 176.95159,167.77777 176.95159,121.97721 141.51592,115.43419 " />
      <path
         sodipodi:type="inkscape:box3dside"
         id="path3"
         style="fill:#843d11;fill-opacity:1;fill-rule:evenodd;stroke:#194214;stroke-width:5;stroke-linejoin:round;stroke-dasharray:none;stroke-dashoffset:0;stroke-opacity:0.952899;paint-order:markers fill stroke"
         inkscape:box3dsidetype="3"
         d="M 32.757354,134.72234 141.51592,115.43419 v 57.48149 L 32.757354,157.76964 Z"
         points="141.51592,115.43419 141.51592,172.91568 32.757354,157.76964 32.757354,134.72234 " />
    </g>
    <path
       style="font-size:22.0749px;font-family:'Franklin Gothic Medium Cond';-inkscape-font-specification:'Franklin Gothic Medium Cond';white-space:pre;inline-size:92.2388;fill:#223d08;stroke:#223911;stroke-width:0;stroke-opacity:0.952899;paint-order:markers fill stroke"
       d="m 35.194281,168.38242 h 3.309079 c 1.602442,0 2.881521,0.28384 3.837238,0.85152 0.962903,0.56769 1.688673,1.41202 2.17731,2.53301 0.495823,1.12099 0.743734,2.36414 0.743734,3.72945 0,1.43717 -0.222761,2.71984 -0.668283,3.84802 -0.438336,1.12099 -0.898998,2.25768 -1.8116,2.94752 -0.905415,0.68984 -2.191145,1.45785 -3.866668,1.25468 l -4.472636,4.94505 z m 2.435999,1.95096 v 10.81109 h 1.013204 c -4.478378,0 6.192465,11.86251 5.177097,8.17024 -4.730645,0.0177 -1.135062,-11.93203 -1.135062,-13.5704 0,-3.60729 -1.347345,-5.41093 -4.042035,-5.41093 z m 9.959574,-1.95096 h 8.42899 v 1.95096 h -5.99299 v 4.20371 h 4.699539 v 1.96174 l -4.968048,0.30836 -1.986968,10.23004 -0.988295,1.21829 9.333771,-7.15416 0.751826,1.83989 -9.277825,0.15418 z m 15.154936,7.16788 h 4.915115 v 7.65292 h -1.293451 l -0.323363,-1.86473 c -0.747327,1.35094 -19.382498,17.90678 -6.285006,7.96228 1.454618,-1.10445 0.127931,-4.97989 -0.797791,-6.31107 -0.928226,-1.33478 -1.712671,-4.76627 -1.712671,-7.05137 0,-2.40725 0.456301,-4.3115 1.368903,-5.71274 0.919787,-1.40843 2.328212,-2.11264 4.225273,-2.11264 2.644389,0 4.225274,1.49466 4.742655,4.48397 l -2.198867,0.54971 c -0.258691,-1.26471 -0.607204,-2.08389 -1.04554,-2.45755 -0.438336,-0.37367 -0.955716,-0.5605 -1.552141,-0.5605 -1.976106,0 -2.964159,1.86473 -2.964159,5.59418 0,3.75101 8.746269,14.49176 7.013547,12.7958 1.681487,0 -1.451707,-8.45196 -1.451707,-11.01731 H 62.74479 Z m 7.415786,-7.16788 h 4.43007 c 1.602442,0 2.784513,0.36289 3.546212,1.08866 0.761699,0.72577 1.142548,1.76771 1.142548,3.12584 0,1.81083 -0.75092,3.0935 -2.252761,3.84801 l 2.791699,6.6505 8.636591,10.17577 -13.573263,-16.31966 h -2.285097 l -3.222111,18.24689 0.786112,-12.103 z m 2.435999,1.88628 v 4.79655 h 1.864726 c 0.833557,0 1.444354,-0.22995 1.832389,-0.68984 0.395221,-0.45989 0.592832,-1.05991 0.592832,-1.80005 0,-1.53777 -0.801221,-2.30666 -2.403664,-2.30666 z m 9.215841,-1.88628 h 8.42899 v 1.95096 h -5.992991 v 4.20371 h 4.69954 l -0.0537,2.73263 -16.94356,3.77737 12.297722,0.0543 h 6.09 l -3.705427,1.83989 -4.820572,0.15418 z m 10.153591,0 H 100.395 v 1.95096 l -13.162189,1.69596 7.169196,2.50775 h 4.699539 l -11.814406,6.35582 7.114867,-4.39408 v 4.60253 l 1.799061,5.12397 4.290942,-3.1299 h -8.526003 z m 9.151163,0 h 8.82781 l 0.16111,1.70305 -11.665752,20.8294 11.677102,-9.86741 4.40355,3.82102 -13.80263,-1.77305 v -1.88628 l 6.45648,-10.83266 h -6.05767 z"
       id="text6"
       transform="matrix(1.1981249,0,0,0.83463753,0.36397058,-1.8198529)"
       aria-label="DEGREEZ"
       sodipodi:nodetypes="csccsccsccccscssccccccccccccccccccccssscsccssscccccsssccccccccccscsscccccccccccccccccccccccccccccccccccccc" />
    <ellipse
       style="fill:#223d08;fill-opacity:1;stroke:#223911;stroke-width:0;stroke-dasharray:none;stroke-opacity:0.952899;paint-order:markers fill stroke"
       id="path17"
       cx="158.32721"
       cy="144.86029"
       rx="9.0992632"
       ry="8.3713236" />
  </g>
</svg>
